<svg id="图层_1" data-name="图层 1" xmlns="http://www.w3.org/2000/svg" viewBox="0 0 58 58"><defs><style>.cls-1{fill:#fff;}.cls-2{fill:none;stroke:#fff;stroke-linecap:round;stroke-linejoin:round;stroke-width:2px;}</style></defs><title>画板 6</title><path class="cls-1" d="M25.73,5.22a22.84,22.84,0,0,0-9.68,20.25A23.08,23.08,0,0,0,37,46.92c.65,0,1.32.08,2,.08a23,23,0,0,0,7-1.11A24,24,0,1,1,25.73,5.22M29,3a25.62,25.62,0,0,0-2.61.13A26,26,0,1,0,50.3,43.91,1,1,0,0,0,49,42.47,20.89,20.89,0,0,1,39,45c-.6,0-1.2,0-1.81-.08a21,21,0,0,1-6.95-40A1,1,0,0,0,29.87,3Z"/><polyline class="cls-2" points="39 32 48 32 39 40 48 40"/><polyline class="cls-2" points="48 24 54 24 48 29 54 29"/><polyline class="cls-2" points="30 30 36 30 30 35 36 35"/></svg>