<svg id="图层_1" data-name="图层 1" xmlns="http://www.w3.org/2000/svg" viewBox="0 0 48 48"><path d="M41.06,31.53A18.5,18.5,0,0,1,16,6.44a1.51,1.51,0,0,0-2-2A21.5,21.5,0,1,0,43.1,33.57a1.51,1.51,0,0,0-2-2ZM24.22,41.78A18.5,18.5,0,0,1,11.39,10a21.27,21.27,0,0,0-.67,5.33,21.52,21.52,0,0,0,21.5,21.5,21.27,21.27,0,0,0,5.33-.67A18.49,18.49,0,0,1,24.22,41.78Z" fill="#fff"/><path d="M26,31h6.8a1,1,0,0,0,0-2H28.41l4.3-4.29a1,1,0,0,0,.21-1.09A1,1,0,0,0,32,23H26.4a1,1,0,0,0,0,2h3.19l-4.3,4.29a1,1,0,0,0-.21,1.09A1,1,0,0,0,26,31Z" fill="#fff"/><path d="M29,20h6.8a1,1,0,0,0,0-2H31.41l4.3-4.29a1,1,0,0,0,.21-1.09A1,1,0,0,0,35,12H29.4a1,1,0,0,0,0,2h3.19l-4.3,4.29a1,1,0,0,0-.21,1.09A1,1,0,0,0,29,20Z" fill="#fff"/><path d="M43.8,27H39.41l4.3-4.29a1,1,0,0,0,.21-1.09A1,1,0,0,0,43,21H37.4a1,1,0,0,0,0,2h3.19l-4.3,4.29a1,1,0,0,0-.21,1.09A1,1,0,0,0,37,29h6.8a1,1,0,0,0,0-2Z" fill="#fff"/></svg>