<svg id="图层_1" data-name="图层 1" xmlns="http://www.w3.org/2000/svg" viewBox="0 0 48 48"><path d="M27.73,8h.19A6.25,6.25,0,0,1,29.2,20.37a9.44,9.44,0,0,1-1.38,2,8.61,8.61,0,0,1-1.08,1A9.24,9.24,0,1,0,27.92,5a9.08,9.08,0,0,0-3.5.71c.17.07.34.13.5.21A9.21,9.21,0,0,1,27.73,8Z" fill="#fff"/><path d="M18.92,24.5a9.25,9.25,0,1,0-9.25-9.25A9.22,9.22,0,0,0,18.92,24.5Zm0-15.5a6.62,6.62,0,0,1,1.1.1,6.25,6.25,0,0,1,0,12.3,6.52,6.52,0,0,1-1.1.1,6.25,6.25,0,0,1,0-12.5Z" fill="#fff"/><path d="M37.75,25.81H33.08A8.28,8.28,0,0,1,36,28.34c.12.15.22.31.33.47h1.4A5.08,5.08,0,0,1,38.24,39,8,8,0,0,1,37,41a8.41,8.41,0,0,1-1,1h1.71a8.1,8.1,0,0,0,0-16.19Z" fill="#fff"/><path d="M35,29.81a8.09,8.09,0,0,0-6.27-3H9.09A8.1,8.1,0,0,0,9.09,43H28.75A8.08,8.08,0,0,0,35,29.81ZM28.75,40H9.09a5.1,5.1,0,0,1,0-10.19H28.75a5.1,5.1,0,0,1,0,10.19Z" fill="#fff"/></svg>