<?xml version="1.0" encoding="utf-8"?>
<!-- Generator: Adobe Illustrator 24.0.0, SVG Export Plug-In . SVG Version: 6.00 Build 0)  -->
<svg version="1.1" id="图层_1" xmlns="http://www.w3.org/2000/svg" xmlns:xlink="http://www.w3.org/1999/xlink" x="0px" y="0px"
	 viewBox="0 0 58 58" enable-background="new 0 0 58 58" xml:space="preserve">
<path fill="#FFFFFF" d="M25.7,5.2C19.2,9.8,15.5,17.5,16,25.5c0.8,11.3,9.6,20.4,21,21.4c0.7,0,1.3,0.1,2,0.1c2.4,0,4.7-0.4,7-1.1
	c-9.3,9.4-24.5,9.5-33.9,0.2s-9.5-24.5-0.2-33.9C15.6,8.4,20.5,5.9,25.7,5.2 M29,3c-0.9,0-1.7,0-2.6,0.1C12.1,4.6,1.7,17.3,3.1,31.6
	s14.2,24.7,28.5,23.3c7.5-0.8,14.3-4.8,18.7-11c0.3-0.5,0.2-1.1-0.3-1.4c-0.3-0.2-0.7-0.2-1-0.1c-3.1,1.7-6.5,2.5-10,2.5
	c-0.6,0-1.2,0-1.8-0.1c-11.6-1-20.1-11.2-19.1-22.7c0.7-7.5,5.3-14.1,12.1-17.3c0.5-0.2,0.7-0.8,0.5-1.3C30.6,3.2,30.3,3,29.9,3H29z
	"/>
</svg>
