<svg id="图层_1" data-name="图层 1" xmlns="http://www.w3.org/2000/svg" viewBox="0 0 58 58"><defs><style>.cls-1,.cls-2{fill:none;stroke:#fff;stroke-miterlimit:10;stroke-width:2px;}.cls-1{stroke-linecap:round;}</style></defs><title>画板 4</title><g id="用户切换"><path class="cls-1" d="M14.09,34H10.55A9.56,9.56,0,0,0,1,43.55v3.81A5.66,5.66,0,0,0,6.73,53H12"/><path class="cls-1" d="M24,5.19A10.33,10.33,0,0,0,22,5a11,11,0,1,0,2,21.82"/><path class="cls-2" d="M47.45,34H24.55A9.53,9.53,0,0,0,15,43.5v3.8A5.72,5.72,0,0,0,20.73,53H51.27A5.72,5.72,0,0,0,57,47.3V43.5A9.53,9.53,0,0,0,47.45,34Z"/><circle class="cls-2" cx="36" cy="16" r="11"/></g></svg>